<svg xmlns="http://www.w3.org/2000/svg" viewBox="0 0 1024 1024">
  <defs>
    <radialGradient id="bg" cx="50%" cy="42%" r="62%">
      <stop offset="0" stop-color="#171717"/>
      <stop offset="0.58" stop-color="#070707"/>
      <stop offset="1" stop-color="#000"/>
    </radialGradient>
    <filter id="glow" x="-50%" y="-50%" width="200%" height="200%">
      <feGaussianBlur stdDeviation="9" result="b"/>
      <feMerge><feMergeNode in="b"/><feMergeNode in="SourceGraphic"/></feMerge>
    </filter>
  </defs>
  <rect width="1024" height="1024" rx="220" fill="url(#bg)"/>
  <g fill="none" stroke="#fff" filter="url(#glow)">
    <ellipse cx="512" cy="512" rx="302" ry="245" stroke-opacity=".18" stroke-width="2"/>
    <ellipse cx="512" cy="512" rx="265" ry="310" transform="rotate(58 512 512)" stroke-opacity=".16" stroke-width="2"/>
    <ellipse cx="512" cy="512" rx="250" ry="318" transform="rotate(-52 512 512)" stroke-opacity=".14" stroke-width="2"/>
  </g>
  <g fill="#fff">
    <circle cx="824.0" cy="512.0" r="5.4" opacity="0.45"/><circle cx="847.4" cy="536.1" r="2.8" opacity="0.56"/><circle cx="807.5" cy="554.7" r="3.3" opacity="0.67"/><circle cx="783.3" cy="571.6" r="2.2" opacity="0.78"/><circle cx="807.7" cy="600.2" r="2.8" opacity="0.89"/><circle cx="795.4" cy="620.3" r="3.3" opacity="0.45"/><circle cx="745.4" cy="622.5" r="2.2" opacity="0.56"/><circle cx="738.9" cy="642.3" r="5.4" opacity="0.67"/><circle cx="751.8" cy="677.0" r="3.3" opacity="0.78"/><circle cx="719.4" cy="682.1" r="2.2" opacity="0.89"/><circle cx="683.7" cy="679.8" r="2.8" opacity="0.45"/><circle cx="685.4" cy="715.0" r="3.3" opacity="0.56"/><circle cx="675.5" cy="744.2" r="2.2" opacity="0.67"/><circle cx="636.5" cy="730.9" r="2.8" opacity="0.78"/><circle cx="611.1" cy="735.2" r="5.4" opacity="0.89"/><circle cx="597.6" cy="774.1" r="2.2" opacity="0.45"/><circle cx="568.6" cy="775.3" r="2.8" opacity="0.56"/><circle cx="536.9" cy="745.4" r="3.3" opacity="0.67"/><circle cx="512.0" cy="756.7" r="2.2" opacity="0.78"/><circle cx="483.5" cy="778.8" r="2.8" opacity="0.89"/><circle cx="460.8" cy="750.1" r="3.3" opacity="0.45"/><circle cx="443.1" cy="722.9" r="5.4" opacity="0.56"/><circle cx="410.0" cy="741.7" r="2.8" opacity="0.67"/><circle cx="380.8" cy="742.8" r="3.3" opacity="0.78"/><circle cx="375.7" cy="705.6" r="2.2" opacity="0.89"/><circle cx="354.6" cy="696.4" r="2.8" opacity="0.45"/><circle cx="307.7" cy="711.7" r="3.3" opacity="0.56"/><circle cx="291.8" cy="692.5" r="2.2" opacity="0.67"/><circle cx="297.2" cy="659.8" r="5.4" opacity="0.78"/><circle cx="260.6" cy="656.3" r="3.3" opacity="0.89"/><circle cx="219.7" cy="650.4" r="2.2" opacity="0.45"/><circle cx="234.6" cy="618.1" r="2.8" opacity="0.56"/><circle cx="243.2" cy="592.2" r="3.3" opacity="0.67"/><circle cx="202.7" cy="580.0" r="2.2" opacity="0.78"/><circle cx="194.7" cy="557.9" r="2.8" opacity="0.89"/><circle cx="235.3" cy="531.9" r="5.4" opacity="0.45"/><circle cx="232.6" cy="512.0" r="2.2" opacity="0.56"/><circle cx="199.5" cy="489.6" r="2.8" opacity="0.67"/><circle cx="222.4" cy="470.1" r="3.3" opacity="0.78"/><circle cx="258.4" cy="456.3" r="2.2" opacity="0.89"/><circle cx="236.7" cy="429.8" r="2.8" opacity="0.45"/><circle cx="222.2" cy="401.2" r="3.3" opacity="0.56"/><circle cx="261.6" cy="393.5" r="5.4" opacity="0.67"/><circle cx="280.9" cy="379.3" r="2.8" opacity="0.78"/><circle cx="262.7" cy="340.5" r="3.3" opacity="0.89"/><circle cx="280.4" cy="322.0" r="2.2" opacity="0.45"/><circle cx="325.9" cy="330.1" r="2.8" opacity="0.56"/><circle cx="339.1" cy="309.5" r="3.3" opacity="0.67"/><circle cx="345.2" cy="275.2" r="2.2" opacity="0.78"/><circle cx="383.0" cy="285.1" r="5.4" opacity="0.89"/><circle cx="418.6" cy="301.5" r="3.3" opacity="0.45"/><circle cx="434.0" cy="273.5" r="2.2" opacity="0.56"/><circle cx="457.4" cy="258.2" r="2.8" opacity="0.67"/><circle cx="488.1" cy="288.1" r="3.3" opacity="0.78"/><circle cx="512.0" cy="291.4" r="2.2" opacity="0.89"/><circle cx="539.0" cy="258.6" r="2.8" opacity="0.45"/><circle cx="565.1" cy="265.0" r="5.4" opacity="0.56"/><circle cx="582.7" cy="295.5" r="2.2" opacity="0.67"/><circle cx="613.8" cy="282.6" r="2.8" opacity="0.78"/><circle cx="652.7" cy="264.5" r="3.3" opacity="0.89"/><circle cx="665.5" cy="294.0" r="2.2" opacity="0.45"/><circle cx="676.6" cy="319.2" r="2.8" opacity="0.56"/><circle cx="719.4" cy="309.3" r="3.3" opacity="0.67"/><circle cx="745.8" cy="320.3" r="5.4" opacity="0.78"/><circle cx="732.1" cy="360.5" r="2.8" opacity="0.89"/><circle cx="745.4" cy="378.0" r="3.3" opacity="0.45"/><circle cx="788.1" cy="381.3" r="2.2" opacity="0.56"/><circle cx="784.0" cy="408.0" r="2.8" opacity="0.67"/><circle cx="759.4" cy="438.2" r="3.3" opacity="0.78"/><circle cx="789.9" cy="450.9" r="2.2" opacity="0.89"/><circle cx="822.0" cy="467.2" r="5.4" opacity="0.45"/><circle cx="795.0" cy="491.7" r="3.3" opacity="0.56"/>
    <circle cx="567.0" cy="512.0" r="2.6" opacity="0.12"/><circle cx="460.4" cy="543.7" r="1.1" opacity="0.17"/><circle cx="519.0" cy="460.2" r="1.3" opacity="0.23"/><circle cx="561.9" cy="554.4" r="1.6" opacity="0.29"/><circle cx="437.2" cy="503.1" r="0.9" opacity="0.34"/><circle cx="566.9" cy="486.8" r="1.1" opacity="0.40"/><circle cx="497.9" cy="553.1" r="1.3" opacity="0.45"/><circle cx="489.7" cy="476.1" r="1.6" opacity="0.12"/><circle cx="559.5" cy="526.4" r="0.9" opacity="0.17"/><circle cx="455.8" cy="530.0" r="2.6" opacity="0.23"/><circle cx="544.2" cy="462.6" r="1.3" opacity="0.29"/><circle cx="539.2" cy="571.0" r="1.6" opacity="0.34"/><circle cx="424.9" cy="478.5" r="0.9" opacity="0.40"/><circle cx="612.0" cy="497.4" r="1.1" opacity="0.45"/><circle cx="456.7" cy="565.9" r="1.3" opacity="0.12"/><circle cx="501.1" cy="451.0" r="1.6" opacity="0.17"/><circle cx="568.9" cy="548.9" r="0.9" opacity="0.23"/><circle cx="443.3" cy="514.3" r="1.1" opacity="0.29"/><circle cx="562.5" cy="471.9" r="2.6" opacity="0.34"/><circle cx="508.2" cy="574.0" r="1.6" opacity="0.40"/><circle cx="450.0" cy="458.7" r="0.9" opacity="0.45"/><circle cx="622.6" cy="522.2" r="1.1" opacity="0.12"/><circle cx="412.5" cy="558.6" r="1.3" opacity="0.17"/><circle cx="539.0" cy="431.2" r="1.6" opacity="0.23"/><circle cx="569.9" cy="581.9" r="0.9" opacity="0.29"/><circle cx="411.7" cy="488.9" r="1.1" opacity="0.34"/><circle cx="597.9" cy="481.9" r="1.3" opacity="0.40"/><circle cx="477.6" cy="576.5" r="2.6" opacity="0.45"/><circle cx="480.9" cy="444.6" r="0.9" opacity="0.12"/><circle cx="602.6" cy="547.8" r="1.1" opacity="0.17"/><circle cx="398.3" cy="533.5" r="1.3" opacity="0.23"/><circle cx="583.6" cy="435.0" r="1.6" opacity="0.29"/><circle cx="536.0" cy="607.0" r="0.9" opacity="0.34"/><circle cx="398.8" cy="452.3" r="1.1" opacity="0.40"/><circle cx="648.1" cy="504.1" r="1.3" opacity="0.45"/><circle cx="426.8" cy="578.6" r="1.6" opacity="0.12"/><circle cx="512.6" cy="425.6" r="2.6" opacity="0.17"/><circle cx="585.6" cy="574.7" r="1.1" opacity="0.23"/><circle cx="400.0" cy="504.0" r="1.3" opacity="0.29"/><circle cx="610.1" cy="456.5" r="1.6" opacity="0.34"/><circle cx="487.2" cy="609.7" r="0.9" opacity="0.40"/><circle cx="430.4" cy="421.9" r="1.1" opacity="0.45"/><circle cx="668.7" cy="541.4" r="1.3" opacity="0.12"/><circle cx="366.5" cy="563.2" r="1.6" opacity="0.17"/><circle cx="566.5" cy="409.1" r="0.9" opacity="0.23"/><circle cx="566.9" cy="609.5" r="2.6" opacity="0.29"/><circle cx="390.0" cy="468.7" r="1.3" opacity="0.34"/><circle cx="636.2" cy="482.7" r="1.6" opacity="0.40"/><circle cx="444.7" cy="599.4" r="0.9" opacity="0.45"/><circle cx="481.8" cy="407.6" r="1.1" opacity="0.12"/><circle cx="641.9" cy="578.2" r="1.3" opacity="0.17"/><circle cx="339.4" cy="527.0" r="1.6" opacity="0.23"/><circle cx="630.6" cy="416.1" r="0.9" opacity="0.29"/><circle cx="518.7" cy="638.8" r="1.1" opacity="0.34"/><circle cx="387.8" cy="423.4" r="2.6" opacity="0.40"/><circle cx="677.5" cy="518.1" r="1.6" opacity="0.45"/><circle cx="392.3" cy="585.7" r="0.9" opacity="0.12"/><circle cx="532.8" cy="399.0" r="1.1" opacity="0.17"/><circle cx="599.2" cy="607.7" r="1.3" opacity="0.23"/><circle cx="351.4" cy="484.7" r="1.6" opacity="0.29"/><circle cx="668.8" cy="448.3" r="0.9" opacity="0.34"/><circle cx="451.9" cy="641.6" r="1.1" opacity="0.40"/><circle cx="427.5" cy="383.9" r="1.3" opacity="0.45"/><circle cx="700.0" cy="567.3" r="2.6" opacity="0.12"/><circle cx="326.2" cy="558.4" r="0.9" opacity="0.17"/><circle cx="599.3" cy="393.3" r="1.1" opacity="0.23"/><circle cx="555.9" cy="638.2" r="1.3" opacity="0.29"/><circle cx="368.8" cy="441.8" r="1.6" opacity="0.34"/><circle cx="684.0" cy="490.4" r="0.9" opacity="0.40"/><circle cx="397.6" cy="619.6" r="1.1" opacity="0.45"/><circle cx="496.4" cy="368.4" r="1.3" opacity="0.12"/><circle cx="669.5" cy="615.2" r="1.6" opacity="0.17"/><circle cx="287.8" cy="510.5" r="2.6" opacity="0.23"/><circle cx="679.1" cy="407.5" r="1.1" opacity="0.29"/><circle cx="490.9" cy="664.9" r="1.3" opacity="0.34"/><circle cx="388.3" cy="392.8" r="1.6" opacity="0.40"/><circle cx="704.4" cy="538.6" r="0.9" opacity="0.45"/><circle cx="349.7" cy="587.8" r="1.1" opacity="0.12"/><circle cx="564.5" cy="371.6" r="1.3" opacity="0.17"/><circle cx="605.4" cy="647.1" r="1.6" opacity="0.23"/><circle cx="304.3" cy="456.0" r="0.9" opacity="0.29"/><circle cx="731.3" cy="450.2" r="2.6" opacity="0.34"/><circle cx="406.1" cy="665.6" r="1.3" opacity="0.40"/><circle cx="441.0" cy="348.3" r="1.6" opacity="0.45"/><circle cx="716.3" cy="597.8" r="0.9" opacity="0.12"/><circle cx="290.7" cy="545.6" r="1.1" opacity="0.17"/><circle cx="637.9" cy="382.3" r="1.3" opacity="0.23"/><circle cx="537.2" cy="669.1" r="1.6" opacity="0.29"/><circle cx="348.4" cy="407.3" r="0.9" opacity="0.34"/><circle cx="739.2" cy="506.7" r="1.1" opacity="0.40"/><circle cx="338.2" cy="633.5" r="2.6" opacity="0.45"/><circle cx="526.4" cy="331.4" r="1.6" opacity="0.12"/><circle cx="680.0" cy="655.3" r="0.9" opacity="0.17"/><circle cx="249.5" cy="485.4" r="1.1" opacity="0.23"/><circle cx="724.9" cy="409.0" r="1.3" opacity="0.29"/><circle cx="455.6" cy="685.5" r="1.6" opacity="0.34"/><circle cx="396.6" cy="360.0" r="0.9" opacity="0.40"/><circle cx="732.4" cy="566.2" r="1.1" opacity="0.45"/><circle cx="296.5" cy="584.0" r="1.3" opacity="0.12"/><circle cx="610.0" cy="345.4" r="2.6" opacity="0.17"/><circle cx="598.8" cy="690.3" r="0.9" opacity="0.23"/><circle cx="267.4" cy="419.2" r="1.1" opacity="0.29"/><circle cx="789.1" cy="462.9" r="1.3" opacity="0.34"/><circle cx="355.2" cy="679.5" r="1.6" opacity="0.40"/><circle cx="467.6" cy="317.1" r="0.9" opacity="0.45"/><circle cx="721.0" cy="631.6" r="1.1" opacity="0.12"/><circle cx="256.3" cy="525.8" r="1.3" opacity="0.17"/><circle cx="685.3" cy="375.5" r="1.6" opacity="0.23"/><circle cx="508.2" cy="702.3" r="2.6" opacity="0.29"/><circle cx="333.2" cy="365.4" r="1.1" opacity="0.34"/><circle cx="795.1" cy="532.8" r="1.3" opacity="0.40"/><circle cx="272.4" cy="637.7" r="1.6" opacity="0.45"/><circle cx="569.8" cy="301.1" r="0.9" opacity="0.12"/><circle cx="672.4" cy="695.1" r="1.1" opacity="0.17"/><circle cx="225.4" cy="454.0" r="1.3" opacity="0.23"/><circle cx="768.2" cy="419.1" r="1.6" opacity="0.29"/><circle cx="413.3" cy="702.2" r="0.9" opacity="0.34"/><circle cx="411.5" cy="323.7" r="2.6" opacity="0.40"/><circle cx="761.8" cy="601.7" r="1.3" opacity="0.45"/><circle cx="234.2" cy="572.2" r="1.6" opacity="0.12"/>
  </g>
  <circle cx="512" cy="512" r="7" fill="#fff" opacity=".92" filter="url(#glow)"/>
</svg>
